<?xml version="1.0" standalone="no"?>
<!DOCTYPE svg PUBLIC "-//W3C//DTD SVG 20010904//EN"
 "http://www.w3.org/TR/2001/REC-SVG-20010904/DTD/svg10.dtd">
<svg version="1.0" xmlns="http://www.w3.org/2000/svg"
 width="5906.000000pt" height="1241.000000pt" viewBox="0 0 5906.000000 1241.000000"
 preserveAspectRatio="xMidYMid meet">

<g transform="translate(0.000000,1241.000000) scale(0.100000,-0.100000)"
fill="#000000" stroke="none">
<path d="M4200 10189 c-19 -5 -93 -15 -165 -24 -159 -19 -318 -48 -405 -75
-36 -11 -77 -20 -91 -20 -15 0 -51 -11 -80 -24 -30 -14 -72 -28 -94 -31 -22
-4 -49 -10 -60 -15 -11 -5 -58 -23 -105 -40 -47 -18 -94 -37 -105 -43 -28 -15
-55 -28 -180 -86 -60 -28 -117 -56 -125 -61 -8 -6 -26 -16 -40 -22 -14 -7 -60
-34 -103 -60 -43 -27 -81 -48 -83 -48 -9 0 -267 -183 -342 -243 -90 -71 -206
-170 -243 -207 -14 -14 -52 -50 -84 -80 -60 -57 -285 -298 -342 -366 -18 -22
-55 -66 -83 -98 -27 -33 -50 -63 -50 -67 0 -4 -19 -31 -42 -61 -55 -69 -188
-274 -232 -357 -10 -20 -24 -43 -32 -52 -8 -9 -28 -44 -45 -80 -17 -35 -39
-74 -50 -87 -10 -14 -19 -32 -19 -40 0 -8 -13 -42 -29 -76 -15 -34 -43 -99
-61 -146 -18 -47 -37 -89 -40 -95 -4 -5 -10 -27 -14 -48 -4 -21 -15 -52 -26
-70 -10 -18 -24 -61 -30 -97 -7 -36 -15 -69 -19 -75 -4 -5 -13 -37 -21 -70 -7
-33 -21 -97 -31 -141 -11 -45 -19 -95 -19 -111 0 -15 -10 -62 -22 -103 -21
-73 -22 -91 -22 -555 0 -420 2 -487 17 -535 9 -30 26 -111 37 -180 32 -197 48
-278 63 -307 8 -16 17 -53 20 -83 3 -31 15 -74 26 -96 12 -22 26 -67 32 -100
6 -32 15 -64 19 -69 5 -6 22 -52 40 -104 17 -51 39 -110 50 -131 11 -22 20
-44 20 -51 0 -6 16 -48 36 -93 33 -72 60 -128 164 -337 39 -78 52 -80 89 -14
17 30 31 59 31 63 0 8 32 81 112 252 16 36 36 79 43 95 8 17 38 84 68 150 30
66 69 154 87 195 18 41 55 122 82 180 27 58 53 114 58 125 4 11 25 56 45 100
21 44 45 98 55 120 10 22 39 83 64 137 25 53 46 100 46 105 0 4 7 22 16 38 9
17 42 91 75 165 32 74 64 142 69 150 6 8 17 31 25 50 8 19 24 52 35 72 11 20
20 43 20 50 0 7 22 58 49 113 26 55 61 129 76 165 45 104 74 169 115 255 99
210 123 263 135 295 7 19 20 49 29 65 9 17 16 37 16 46 0 9 8 27 18 40 10 13
43 78 72 144 30 66 61 131 70 145 10 14 27 46 38 72 11 26 55 108 96 183 42
74 76 137 76 139 0 3 30 52 68 111 37 58 76 120 86 138 11 18 40 63 65 101 25
37 56 85 68 105 12 20 25 41 30 46 5 6 46 57 91 114 45 57 103 128 130 158 51
59 215 203 230 203 5 0 15 7 23 16 7 8 41 28 75 45 54 25 75 29 144 29 66 0
90 -5 129 -24 72 -37 148 -136 161 -211 4 -22 15 -67 24 -100 21 -78 22 -329
1 -438 -19 -102 -20 -344 0 -552 8 -88 19 -209 24 -270 16 -185 42 -347 67
-418 13 -38 24 -79 24 -91 0 -21 15 -54 78 -171 34 -61 97 -121 159 -149 66
-31 87 -32 136 -7 20 10 54 22 74 25 35 6 151 53 163 67 3 3 21 11 40 19 31
13 58 29 152 92 15 10 30 18 33 18 6 0 96 72 151 122 58 51 218 218 228 236 5
10 22 30 37 46 26 25 55 67 144 206 38 58 70 117 165 304 50 99 94 185 99 190
5 6 23 40 42 76 18 36 40 76 49 90 10 14 21 36 25 50 4 14 14 32 21 41 8 9 28
42 44 75 17 32 53 97 81 144 28 47 65 110 81 140 16 30 51 91 78 135 27 44 59
100 70 125 12 25 32 58 44 75 13 16 33 50 45 74 13 24 38 66 57 92 19 27 34
52 34 56 0 6 70 115 123 193 9 14 33 50 53 80 20 30 50 70 65 88 49 56 39 72
-86 137 -198 104 -261 135 -270 135 -6 0 -26 11 -45 25 -19 14 -41 25 -50 25
-8 0 -51 18 -95 40 -44 22 -86 40 -93 40 -7 0 -38 12 -69 26 -31 15 -70 30
-87 34 -17 5 -53 17 -81 28 -27 11 -93 34 -145 51 -52 17 -113 37 -135 45 -22
9 -56 15 -75 16 -19 0 -50 9 -69 21 -21 13 -64 24 -118 30 -47 5 -97 15 -111
23 -15 7 -65 19 -112 25 -47 7 -121 18 -165 26 -44 8 -114 17 -155 21 -41 3
-111 12 -155 20 -91 16 -634 18 -695 3z"/>
<path d="M7698 8873 c-9 -10 -21 -29 -28 -42 -6 -13 -33 -50 -58 -83 -26 -33
-53 -70 -61 -81 -8 -12 -29 -40 -46 -62 -18 -22 -40 -53 -49 -70 -9 -16 -35
-55 -57 -85 -22 -30 -70 -100 -106 -155 -36 -55 -78 -119 -94 -142 -16 -23
-29 -44 -29 -47 0 -7 -53 -92 -102 -163 -15 -23 -28 -45 -28 -50 0 -4 -21 -39
-46 -78 -37 -55 -227 -396 -309 -555 -40 -76 -167 -346 -194 -410 -18 -41 -41
-93 -51 -116 -11 -23 -20 -48 -20 -56 0 -9 -9 -26 -19 -40 -11 -13 -23 -38
-26 -54 -7 -29 -77 -222 -116 -319 -12 -27 -26 -75 -33 -105 -8 -30 -20 -75
-29 -100 -28 -81 -57 -185 -57 -203 0 -9 -11 -50 -25 -89 -14 -39 -25 -89 -25
-111 0 -22 -11 -80 -24 -131 -14 -53 -27 -137 -31 -201 -4 -60 -13 -162 -21
-225 -18 -146 -17 -291 2 -450 8 -69 18 -168 23 -220 5 -52 16 -113 26 -135 9
-22 21 -67 26 -100 4 -33 18 -78 29 -100 11 -21 20 -46 20 -54 0 -18 93 -228
133 -301 59 -106 199 -311 245 -359 26 -26 59 -61 73 -77 42 -48 230 -219 296
-271 80 -61 176 -123 192 -123 7 0 41 21 77 48 35 26 79 57 97 70 49 35 219
194 345 323 122 126 306 354 414 514 15 22 40 58 55 80 31 44 47 69 140 229
35 61 72 128 83 150 10 23 25 52 33 66 21 39 64 129 91 195 13 33 45 108 70
167 25 59 46 119 46 133 0 15 9 38 20 52 11 14 20 32 20 39 0 8 13 55 29 106
60 193 71 232 71 258 0 15 11 52 24 81 16 35 26 83 31 139 4 46 12 94 18 105
18 34 36 238 43 498 6 199 4 287 -10 440 -10 106 -22 200 -27 210 -6 10 -16
67 -24 125 -7 59 -22 127 -33 152 -11 25 -23 65 -27 90 -4 25 -30 110 -57 190
-27 80 -56 165 -65 190 -8 25 -27 74 -43 110 -61 142 -112 256 -123 275 -6 11
-21 38 -32 60 -12 22 -36 64 -54 93 -17 29 -31 57 -31 61 0 4 -13 27 -30 49
-16 23 -30 46 -30 50 0 13 -154 245 -173 261 -9 7 -17 17 -17 22 0 11 -70 104
-168 224 -74 90 -108 125 -122 125 -4 0 -14 -8 -22 -17z"/>
<path d="M27685 8691 c-148 -12 -379 -95 -545 -195 -203 -122 -481 -396 -515
-508 -4 -12 -17 -34 -30 -48 -22 -24 -105 -199 -105 -221 0 -6 -13 -41 -29
-77 -22 -52 -30 -88 -34 -162 -4 -52 -13 -120 -22 -150 -21 -77 -19 -191 5
-275 11 -39 20 -101 20 -140 1 -38 8 -88 16 -110 9 -22 24 -66 34 -97 10 -32
28 -79 40 -105 61 -130 73 -153 80 -153 4 0 13 -14 20 -31 7 -17 18 -36 25
-42 6 -7 26 -34 45 -62 48 -70 263 -283 335 -332 70 -48 269 -163 282 -163 5
0 28 -9 51 -20 22 -11 49 -20 60 -20 10 0 37 -9 59 -20 23 -11 79 -24 126 -29
47 -6 108 -17 135 -26 42 -14 82 -16 214 -13 106 2 171 8 186 16 12 7 61 18
110 23 48 6 106 20 129 30 23 10 50 19 59 19 25 0 133 49 209 95 22 13 58 34
80 46 118 63 349 274 427 389 21 30 49 69 62 85 29 36 126 226 126 247 0 9 9
27 20 41 13 16 24 52 29 94 5 37 18 88 29 113 39 88 38 542 -2 620 -9 19 -19
62 -22 95 -3 42 -12 70 -29 95 -14 20 -25 47 -26 61 0 13 -12 47 -27 75 -106
202 -161 275 -329 442 -99 98 -137 130 -212 177 -8 6 -41 27 -73 47 -96 61
-282 141 -363 154 -22 4 -55 14 -74 21 -39 17 -435 26 -576 14z m314 -482 c24
-5 85 -14 135 -19 58 -5 106 -16 131 -29 21 -12 45 -21 52 -21 15 0 68 -30
155 -87 63 -42 201 -172 223 -211 5 -10 26 -39 46 -63 34 -42 99 -154 99 -172
0 -5 8 -20 19 -33 12 -15 21 -49 25 -96 4 -40 16 -93 27 -117 27 -62 27 -249
0 -318 -10 -26 -21 -77 -25 -112 -5 -38 -15 -76 -27 -92 -10 -15 -19 -32 -19
-39 0 -20 -68 -137 -127 -220 -32 -45 -172 -179 -215 -207 -105 -67 -235 -133
-263 -133 -14 0 -45 -10 -68 -22 -38 -21 -59 -23 -215 -26 -162 -3 -178 -2
-250 21 -42 14 -92 28 -111 32 -46 10 -197 90 -239 126 -18 16 -36 29 -41 29
-12 0 -142 135 -184 192 -20 25 -43 61 -53 80 -9 18 -20 35 -24 38 -12 8 -70
135 -70 152 0 8 -7 30 -17 48 -40 81 -42 493 -2 576 10 22 19 47 19 55 0 8 22
57 48 109 79 155 213 316 323 386 24 15 53 36 65 46 26 23 176 87 230 98 23 5
72 11 110 15 38 3 83 9 99 14 41 13 91 12 144 0z"/>
<path d="M10267 8632 c-15 -16 -16 -139 -16 -1434 0 -1293 1 -1417 16 -1430
12 -10 72 -14 249 -16 l233 -3 16 32 c16 29 17 121 14 1067 -3 713 -1 1036 7
1039 19 6 62 -52 77 -107 15 -55 37 -123 61 -190 31 -86 58 -168 68 -205 6
-22 21 -67 33 -100 13 -33 35 -98 50 -145 15 -47 36 -104 46 -127 11 -24 19
-51 19 -60 0 -10 11 -42 25 -71 14 -30 25 -64 25 -77 0 -13 11 -47 25 -77 14
-29 25 -62 25 -73 0 -11 6 -31 13 -45 8 -14 19 -48 26 -75 7 -28 19 -60 27
-73 8 -12 19 -41 23 -65 5 -23 18 -64 29 -92 11 -27 32 -88 47 -135 14 -47 33
-97 41 -112 8 -14 14 -39 14 -55 0 -16 16 -60 35 -99 19 -38 35 -83 35 -100 0
-17 6 -36 13 -42 8 -7 85 -10 220 -9 238 2 238 2 261 98 8 30 26 86 41 124 15
39 35 99 45 135 9 36 24 79 32 95 9 17 19 46 23 65 4 19 15 55 25 80 10 25 32
90 50 145 17 55 37 109 44 120 7 11 16 40 19 65 4 25 18 67 32 94 14 27 25 57
25 65 0 9 14 54 31 101 17 47 40 114 50 149 10 35 25 73 32 85 8 12 18 42 22
66 4 25 14 61 22 80 8 19 21 58 28 85 7 28 21 64 29 80 9 17 16 38 16 47 0 9
9 32 19 50 11 18 22 53 26 78 4 25 15 61 25 80 9 19 21 53 25 75 9 50 22 75
39 75 8 0 17 -7 20 -17 4 -9 7 -478 6 -1042 0 -810 3 -1031 13 -1051 l13 -25
214 -5 c221 -5 277 -1 291 22 5 7 9 653 9 1435 0 1396 0 1422 -19 1433 -13 6
-146 10 -365 10 -391 0 -377 3 -390 -80 -4 -23 -18 -61 -31 -85 -14 -23 -25
-54 -25 -69 0 -15 -8 -43 -19 -64 -10 -20 -22 -53 -26 -72 -4 -19 -13 -44 -20
-56 -7 -11 -19 -41 -25 -65 -6 -24 -18 -58 -26 -76 -8 -17 -18 -52 -23 -77 -5
-25 -13 -51 -19 -58 -15 -19 -122 -345 -122 -372 0 -13 -9 -31 -20 -41 -10 -9
-24 -42 -31 -73 -6 -31 -20 -72 -30 -92 -11 -19 -19 -44 -19 -55 -1 -11 -9
-38 -20 -60 -11 -22 -19 -48 -20 -58 0 -10 -11 -40 -25 -67 -14 -27 -25 -62
-25 -77 0 -16 -9 -45 -20 -65 -11 -21 -24 -55 -29 -75 -12 -47 -53 -161 -68
-188 -5 -11 -13 -38 -16 -59 -4 -22 -23 -72 -42 -113 -33 -65 -39 -72 -56 -63
-10 6 -19 18 -19 28 0 9 -11 41 -25 70 -14 30 -25 62 -25 72 0 10 -11 38 -25
61 -14 24 -25 56 -25 72 0 15 -9 46 -20 70 -10 23 -31 80 -46 127 -14 47 -34
101 -44 120 -10 20 -21 54 -25 75 -4 22 -13 49 -20 61 -7 11 -18 41 -25 65 -6
24 -15 53 -20 64 -18 37 -61 160 -76 213 -8 29 -24 67 -34 85 -11 18 -20 42
-20 55 0 12 -15 62 -34 110 -19 48 -41 110 -49 138 -8 28 -22 65 -31 82 -9 17
-16 46 -16 65 0 20 -10 50 -25 71 -14 20 -28 56 -31 79 -4 23 -17 61 -30 85
-13 23 -24 53 -24 67 0 13 -6 36 -14 52 -8 15 -20 47 -26 70 -6 23 -22 56 -36
73 l-26 30 -342 0 c-318 0 -344 -1 -359 -18z"/>
<path d="M13794 8639 c-4 -7 -6 -484 -5 -1062 1 -903 4 -1053 16 -1078 9 -16
22 -63 30 -106 15 -80 79 -224 119 -269 11 -13 35 -42 51 -65 47 -65 234 -209
299 -232 17 -5 43 -18 58 -29 14 -10 30 -18 34 -18 5 0 31 -9 59 -19 27 -11
84 -26 125 -34 41 -8 93 -20 115 -26 51 -14 218 -14 270 0 22 6 69 17 105 25
134 30 258 80 326 131 17 13 34 23 39 23 11 0 111 85 164 140 62 63 118 146
142 210 11 30 27 62 35 71 9 10 22 55 30 100 8 46 19 98 24 114 11 35 17 2106
6 2124 -9 15 -492 16 -501 1 -4 -6 -6 -425 -6 -933 1 -782 -1 -935 -14 -1007
-8 -47 -15 -104 -15 -127 0 -76 -103 -253 -166 -286 -19 -9 -34 -22 -34 -26 0
-5 -17 -15 -37 -21 -21 -7 -49 -20 -63 -29 -20 -13 -53 -16 -180 -16 -150 0
-157 1 -205 28 -27 15 -55 27 -61 27 -6 0 -39 26 -74 58 -79 72 -137 185 -150
296 -4 39 -13 84 -19 99 -8 20 -11 307 -11 976 0 723 -3 950 -12 959 -17 17
-484 17 -494 1z"/>
<path d="M16392 8641 c-19 -12 -18 -2871 1 -2883 6 -4 317 -8 689 -8 602 0
678 2 692 16 14 13 16 48 16 229 0 117 -3 220 -6 229 -5 14 -53 16 -433 16
-328 0 -431 3 -444 13 -17 11 -18 86 -17 1189 0 1061 -1 1178 -16 1192 -13 14
-48 16 -242 16 -125 0 -233 -4 -240 -9z"/>
<path d="M17836 8635 c-12 -12 -14 -48 -14 -187 0 -239 3 -264 36 -277 17 -6
112 -10 250 -8 194 2 225 0 238 -14 12 -14 14 -177 14 -1180 0 -915 3 -1169
13 -1189 l13 -25 243 -3 c217 -2 246 0 263 14 17 16 18 62 18 1188 0 1060 2
1174 16 1194 l16 23 233 -5 c211 -5 236 -4 255 12 20 16 21 26 21 236 0 171
-3 221 -13 227 -7 5 -367 9 -800 9 -685 0 -789 -2 -802 -15z"/>
<path d="M19781 8637 c-7 -10 -11 -418 -11 -1434 0 -1283 1 -1423 16 -1437 13
-14 49 -16 243 -16 179 0 231 3 240 13 16 20 17 2853 0 2873 -16 20 -471 21
-488 1z"/>
<path d="M20872 8638 c-16 -16 -18 -2839 -2 -2869 10 -18 24 -19 244 -19 186
0 236 3 245 14 8 10 12 282 12 1030 1 903 3 1018 16 1032 14 14 17 14 32 -1
23 -23 129 -200 219 -365 19 -36 40 -72 47 -80 11 -13 34 -55 116 -208 9 -18
23 -40 31 -49 12 -15 22 -32 95 -173 18 -34 38 -69 45 -77 14 -17 31 -45 50
-83 7 -14 36 -63 63 -110 68 -116 80 -137 110 -195 26 -53 66 -123 93 -165 9
-14 25 -41 35 -60 10 -19 31 -57 47 -85 16 -27 37 -65 47 -82 9 -18 20 -33 24
-33 4 0 13 -17 19 -37 7 -21 20 -47 30 -58 10 -11 34 -51 54 -90 38 -76 90
-140 106 -130 5 3 129 6 274 5 151 0 267 3 270 9 9 14 11 2864 3 2879 -6 9
-69 12 -257 12 -136 0 -255 -3 -264 -6 -14 -6 -16 -104 -16 -1013 0 -1031 0
-1031 -37 -1031 -6 0 -30 37 -53 83 -22 45 -54 105 -69 132 -16 28 -40 71 -54
96 -13 26 -38 68 -56 93 -17 26 -31 49 -31 53 0 6 -100 186 -185 333 -21 36
-50 88 -66 115 -15 28 -44 80 -66 117 -137 243 -198 352 -249 445 -14 27 -41
73 -60 104 -19 31 -34 60 -34 63 0 4 -11 22 -25 39 -13 18 -28 41 -32 52 -4
11 -33 64 -63 118 -30 54 -64 117 -76 139 -35 70 -27 68 -339 68 -205 0 -284
-3 -293 -12z"/>
<path d="M23753 8639 c-19 -20 -19 -2847 0 -2873 13 -17 38 -18 458 -13 479 5
547 11 859 73 14 3 48 16 77 30 28 13 61 24 71 24 11 0 82 33 158 73 128 67
146 80 249 182 109 108 189 209 214 272 7 17 21 39 32 49 10 9 19 23 19 29 0
7 11 29 25 50 14 20 29 51 32 69 3 17 13 44 21 61 25 49 63 214 75 320 22 212
8 452 -38 635 -15 58 -30 110 -35 115 -4 6 -15 34 -25 64 -9 29 -33 80 -51
113 -19 33 -34 62 -34 66 0 12 -66 110 -109 162 -77 92 -164 179 -206 207 -22
15 -49 35 -60 45 -49 42 -268 149 -345 168 -19 4 -62 16 -95 25 -188 52 -252
57 -780 62 -398 4 -503 2 -512 -8z m827 -484 c96 -7 195 -20 220 -29 25 -8 64
-18 87 -22 23 -3 57 -17 75 -30 17 -13 39 -24 49 -24 9 0 27 -8 40 -19 13 -10
44 -28 69 -41 53 -27 195 -167 244 -242 19 -29 44 -65 56 -80 11 -14 20 -36
20 -48 0 -12 11 -35 25 -52 14 -16 25 -40 25 -54 0 -13 9 -64 20 -113 25 -113
28 -310 7 -396 -9 -33 -18 -83 -22 -112 -4 -30 -17 -65 -31 -84 -13 -18 -24
-41 -24 -52 0 -11 -10 -32 -22 -47 -13 -16 -34 -47 -48 -70 -37 -63 -180 -193
-262 -240 -40 -22 -80 -45 -88 -50 -32 -19 -141 -50 -280 -81 -77 -16 -211
-29 -316 -29 -90 0 -103 2 -120 21 -18 20 -19 52 -21 941 l-2 920 24 24 c29
28 34 29 275 9z"/>
<path d="M31771 8636 c-9 -11 -12 -262 -12 -1038 0 -624 -4 -1050 -10 -1093
-5 -38 -12 -88 -15 -110 -9 -73 -14 -82 -64 -134 -62 -64 -81 -71 -179 -71
-64 0 -81 3 -95 19 -10 11 -31 25 -46 31 -30 13 -93 97 -111 149 -14 38 -18
39 -280 40 -177 1 -219 -2 -229 -14 -33 -40 41 -273 117 -368 13 -16 23 -34
23 -41 0 -17 163 -176 181 -176 5 0 29 -13 54 -29 46 -29 99 -50 232 -91 62
-19 90 -22 186 -19 71 3 120 9 129 17 8 6 37 15 64 18 27 4 65 15 84 24 19 10
55 28 80 39 25 11 68 40 96 63 54 45 144 143 144 156 0 5 8 17 18 28 29 33 81
145 104 229 l23 80 2 1144 c3 911 1 1146 -9 1153 -7 4 -117 8 -244 8 -189 0
-234 -3 -243 -14z"/>
<path d="M33833 8618 c-17 -18 -36 -51 -43 -73 -7 -22 -27 -74 -45 -115 -18
-41 -40 -96 -50 -122 -9 -27 -20 -48 -25 -48 -4 0 -13 -21 -20 -47 -7 -27 -18
-57 -25 -68 -7 -11 -27 -56 -44 -100 -18 -44 -39 -90 -47 -102 -8 -12 -14 -28
-14 -36 0 -7 -11 -35 -24 -61 -13 -27 -27 -60 -31 -75 -3 -14 -15 -44 -25 -66
-10 -22 -42 -94 -70 -160 -28 -66 -59 -138 -70 -160 -10 -22 -30 -71 -45 -110
-14 -38 -37 -91 -50 -116 -14 -26 -25 -54 -25 -62 0 -8 -9 -26 -20 -40 -11
-14 -23 -40 -26 -59 -4 -18 -26 -75 -50 -125 -24 -51 -44 -102 -44 -112 0 -11
-11 -32 -23 -48 -13 -15 -27 -45 -30 -66 -3 -20 -15 -49 -26 -64 -12 -14 -21
-34 -21 -44 0 -21 -27 -87 -66 -160 -13 -26 -24 -55 -24 -64 0 -10 -11 -38
-24 -64 -13 -25 -36 -75 -50 -111 -15 -36 -34 -77 -42 -92 -8 -14 -14 -36 -14
-48 0 -12 -13 -47 -29 -78 -60 -120 -70 -144 -64 -158 4 -12 50 -14 284 -14
276 0 278 0 293 22 9 12 16 28 16 36 0 13 36 98 65 155 8 16 15 34 15 41 0 7
11 30 25 50 14 20 25 47 25 59 0 12 9 37 20 55 11 18 20 38 20 45 0 6 14 39
30 72 17 33 30 65 30 72 0 7 11 29 25 49 14 20 25 44 25 54 0 9 8 24 18 33 15
13 78 15 513 17 310 0 505 -3 522 -9 18 -7 36 -30 57 -70 16 -33 30 -65 30
-70 0 -6 11 -34 24 -63 13 -29 27 -64 31 -77 4 -14 16 -38 26 -55 11 -17 19
-38 19 -46 0 -8 9 -32 20 -53 11 -20 20 -45 20 -55 0 -9 10 -33 23 -52 13 -19
29 -55 36 -79 12 -43 52 -114 69 -125 4 -2 129 -6 277 -7 230 -1 271 1 279 14
7 10 3 22 -11 41 -11 14 -24 42 -27 61 -4 20 -25 71 -46 113 -22 42 -40 84
-40 93 0 10 -11 37 -25 60 -14 24 -25 51 -25 59 0 8 -9 33 -19 55 -18 35 -42
90 -94 205 -9 19 -21 54 -26 76 -6 23 -19 52 -30 65 -10 13 -22 40 -26 59 -4
19 -11 40 -16 46 -9 11 -91 202 -112 259 -6 17 -23 57 -39 90 -15 33 -28 68
-28 78 0 9 -4 17 -8 17 -5 0 -15 19 -22 43 -7 23 -21 56 -30 72 -10 17 -20 45
-24 63 -3 19 -15 45 -26 59 -11 14 -20 33 -20 41 0 9 -8 34 -19 56 -57 124
-71 156 -71 166 0 6 -13 36 -30 67 -16 31 -30 62 -30 69 0 7 -6 25 -14 41 -30
58 -76 162 -76 171 0 9 -30 82 -69 167 -11 22 -28 63 -39 90 -12 28 -35 82
-52 122 -16 39 -30 74 -30 78 0 4 -9 19 -19 34 -11 15 -22 45 -26 66 -4 22
-18 55 -32 73 l-24 32 -188 0 -187 0 -31 -32z m257 -812 c17 -35 30 -73 30
-84 0 -10 11 -40 24 -65 14 -25 28 -62 32 -82 3 -19 10 -38 15 -41 5 -2 15
-26 23 -52 8 -26 28 -83 45 -127 16 -44 37 -102 47 -130 10 -27 30 -78 46
-111 57 -124 63 -122 -291 -123 -236 -2 -296 1 -325 13 -40 17 -42 22 -22 63
31 61 66 151 66 170 0 11 9 31 19 45 11 13 22 44 26 69 3 24 15 56 26 71 11
15 22 42 25 60 5 32 12 51 67 183 13 33 27 72 31 86 9 41 56 119 72 119 8 0
28 -29 44 -64z"/>
<path d="M35533 8633 c-3 -9 1 -28 10 -42 9 -14 24 -42 32 -61 9 -19 20 -42
25 -50 5 -8 41 -76 78 -150 153 -299 255 -497 277 -535 13 -22 80 -152 150
-290 126 -247 157 -306 174 -335 5 -8 35 -67 66 -130 32 -63 61 -120 66 -126
5 -6 18 -38 29 -70 18 -56 20 -88 20 -561 0 -442 2 -503 16 -517 13 -14 50
-16 254 -16 226 0 240 1 250 19 6 13 10 202 10 543 l1 523 64 120 c35 66 98
188 141 270 69 136 97 188 186 353 15 29 28 57 28 62 0 6 32 68 70 138 39 70
70 135 70 143 0 9 9 24 19 33 20 18 35 47 110 208 22 47 45 89 50 93 6 3 11
15 11 25 0 11 14 35 30 53 17 19 30 41 30 50 0 8 27 66 60 128 33 63 58 119
55 126 -3 11 -62 13 -277 11 l-272 -3 -38 -55 c-21 -30 -38 -67 -38 -81 0 -14
-11 -36 -24 -49 -14 -12 -28 -36 -31 -52 -4 -17 -27 -70 -51 -119 -24 -49 -44
-92 -44 -95 0 -3 -8 -18 -19 -32 -10 -15 -21 -39 -25 -54 -3 -15 -38 -92 -76
-171 -39 -79 -70 -147 -70 -152 0 -4 -9 -19 -19 -34 -11 -15 -23 -40 -27 -57
-4 -16 -15 -41 -25 -56 -11 -14 -19 -32 -19 -40 0 -7 -9 -26 -20 -43 -11 -16
-20 -37 -20 -46 0 -9 -9 -27 -19 -40 -10 -14 -23 -44 -28 -68 -16 -84 -60 -81
-99 6 -15 32 -35 69 -45 82 -11 13 -19 30 -19 37 0 7 -28 73 -63 146 -35 73
-70 149 -77 168 -8 19 -22 46 -32 59 -10 13 -18 28 -18 33 0 4 -17 45 -39 91
-21 45 -46 98 -55 117 -8 19 -20 42 -25 50 -5 8 -22 44 -38 80 -15 36 -49 107
-75 159 -27 51 -48 98 -48 103 0 5 -15 34 -32 64 l-33 54 -268 0 c-240 0 -268
-2 -274 -17z"/>
<path d="M39217 8637 c-18 -13 -59 -99 -79 -167 -6 -19 -19 -48 -30 -63 -11
-16 -25 -47 -30 -69 -5 -23 -17 -53 -27 -67 -10 -14 -21 -39 -25 -56 -4 -16
-25 -67 -47 -112 -21 -46 -39 -91 -39 -101 0 -11 -9 -31 -20 -45 -11 -14 -29
-51 -39 -84 -10 -32 -40 -105 -66 -163 -26 -58 -53 -123 -61 -145 -8 -22 -23
-58 -34 -80 -10 -22 -38 -87 -61 -145 -23 -58 -52 -127 -65 -155 -24 -50 -61
-138 -114 -270 -15 -38 -35 -83 -44 -100 -9 -16 -16 -35 -16 -42 0 -7 -8 -27
-18 -45 -10 -18 -24 -46 -30 -63 -6 -16 -29 -72 -51 -123 -23 -51 -41 -101
-41 -111 0 -10 -8 -29 -18 -42 -10 -13 -24 -40 -31 -59 -7 -19 -19 -48 -27
-65 -45 -103 -64 -149 -64 -161 0 -8 -11 -35 -25 -61 -46 -87 -115 -262 -109
-278 5 -13 44 -15 288 -12 l281 2 15 45 c8 25 18 50 23 57 11 18 67 157 67
169 0 5 11 25 25 44 14 19 25 43 25 53 0 11 11 40 24 66 13 25 45 98 71 161
26 63 54 125 62 138 l13 22 503 0 c276 0 512 -3 525 -6 22 -6 60 -66 77 -124
4 -14 23 -56 41 -95 19 -38 34 -77 34 -85 0 -8 8 -28 18 -45 9 -16 28 -57 40
-90 13 -33 31 -76 41 -95 11 -20 24 -56 31 -80 7 -25 26 -66 43 -93 l31 -47
270 2 c251 3 271 4 274 21 3 17 -51 163 -88 237 -9 19 -21 47 -26 61 -10 30
-86 214 -114 274 -10 22 -32 70 -49 108 -17 37 -31 73 -31 80 0 7 -6 21 -13
32 -7 11 -26 54 -41 95 -26 68 -54 133 -107 246 -10 22 -25 58 -33 80 -7 21
-28 69 -45 107 -17 37 -31 78 -31 91 0 12 -11 36 -24 51 -14 16 -29 47 -35 70
-6 22 -26 76 -46 118 -19 43 -35 84 -35 91 0 7 -11 30 -25 50 -14 20 -25 45
-25 55 0 10 -12 40 -26 67 -22 43 -48 106 -114 277 -10 27 -23 54 -29 60 -5 7
-16 30 -24 52 -27 72 -114 279 -131 310 -9 17 -16 37 -16 45 0 8 -7 24 -15 34
-8 11 -22 42 -30 70 -9 28 -24 65 -34 81 l-18 30 -194 3 c-148 2 -199 -1 -212
-11z m230 -788 c7 -13 22 -51 34 -84 12 -33 29 -78 39 -100 10 -22 23 -61 29
-87 6 -27 20 -63 31 -80 11 -18 20 -40 20 -49 0 -9 20 -65 45 -125 25 -59 45
-115 45 -124 0 -8 14 -42 30 -75 34 -69 37 -96 13 -117 -15 -14 -60 -16 -308
-16 -159 -1 -302 1 -317 4 -36 7 -43 32 -18 67 12 15 24 45 27 65 3 20 9 42
13 47 12 15 70 165 70 179 0 6 13 38 30 71 16 33 30 74 30 91 0 17 7 37 14 44
8 6 22 33 30 58 44 143 101 265 119 259 7 -2 17 -14 24 -28z"/>
<path d="M42242 8638 c-9 -9 -12 -340 -12 -1430 0 -1405 0 -1418 20 -1438 19
-19 33 -20 250 -20 215 0 230 1 239 19 7 13 10 373 10 1064 -1 1041 1 1111 31
1081 11 -12 57 -134 76 -203 9 -30 21 -63 29 -75 7 -11 16 -37 20 -56 9 -45
55 -182 65 -195 4 -5 15 -39 24 -75 9 -36 25 -83 36 -105 11 -21 20 -46 20
-55 0 -8 17 -60 36 -115 20 -55 40 -118 46 -140 5 -22 18 -56 28 -75 9 -19 20
-53 24 -75 4 -22 14 -53 22 -70 19 -42 111 -322 119 -365 4 -19 15 -48 25 -65
10 -16 24 -52 31 -80 7 -27 18 -61 26 -75 7 -14 13 -34 13 -45 0 -11 9 -37 20
-58 11 -20 20 -47 20 -58 0 -25 47 -136 68 -161 13 -16 37 -18 217 -18 204 0
225 4 225 39 0 7 11 37 24 65 13 28 29 69 34 91 17 61 96 286 114 320 8 17 19
52 22 78 4 27 18 69 32 94 13 25 24 53 24 61 0 19 97 310 114 342 7 14 17 43
21 65 3 21 13 51 21 66 20 40 64 178 64 203 0 12 11 42 25 68 14 26 25 57 25
70 0 13 11 46 25 73 13 28 25 56 25 63 0 19 61 194 71 208 5 6 12 33 15 60 3
27 14 60 23 74 10 14 28 48 40 75 19 44 24 48 33 32 7 -13 10 -352 9 -1055 -1
-830 1 -1042 12 -1062 l13 -25 230 -3 c214 -2 232 -1 247 16 16 17 17 123 15
1448 l-3 1429 -359 0 c-309 0 -360 -2 -367 -15 -40 -79 -59 -123 -59 -142 0
-12 -9 -40 -19 -62 -10 -23 -31 -81 -45 -131 -15 -49 -38 -112 -51 -140 -13
-27 -26 -66 -29 -85 -4 -19 -15 -53 -26 -75 -10 -22 -31 -80 -45 -130 -14 -49
-35 -106 -46 -126 -10 -20 -19 -50 -19 -66 0 -15 -11 -44 -24 -63 -13 -19 -26
-51 -28 -70 -3 -19 -20 -73 -38 -120 -18 -47 -41 -116 -52 -155 -11 -38 -25
-76 -32 -84 -6 -8 -16 -37 -22 -65 -6 -28 -21 -73 -32 -101 -11 -27 -32 -88
-47 -135 -15 -47 -31 -89 -35 -95 -4 -5 -12 -32 -19 -59 -7 -27 -20 -65 -31
-85 -10 -20 -21 -58 -25 -84 -8 -54 -32 -75 -65 -57 -17 9 -40 64 -40 98 0 7
-9 31 -21 54 -11 22 -27 62 -34 87 -7 25 -26 80 -42 122 -17 42 -35 97 -42
123 -6 26 -20 64 -31 84 -11 20 -20 47 -20 61 0 13 -9 38 -19 55 -11 17 -24
49 -30 71 -12 50 -36 122 -67 202 -13 34 -24 71 -24 83 0 12 -9 33 -20 47 -11
14 -22 41 -26 62 -3 20 -16 61 -29 91 -12 30 -35 96 -50 145 -16 50 -36 104
-47 121 -10 17 -18 43 -18 57 0 15 -11 50 -24 79 -27 60 -52 130 -71 200 -7
25 -20 57 -29 69 -9 13 -16 39 -16 59 0 19 -12 53 -25 75 -14 22 -25 47 -25
56 0 9 -8 23 -18 32 -17 15 -57 17 -363 17 -255 0 -348 -3 -357 -12z"/>
<path d="M46779 8623 c-6 -16 -19 -46 -29 -68 -10 -22 -24 -57 -30 -77 -6 -21
-16 -40 -20 -43 -5 -3 -14 -25 -21 -48 -6 -23 -17 -49 -24 -57 -7 -8 -18 -31
-23 -50 -11 -38 -39 -106 -127 -305 -31 -71 -60 -145 -65 -163 -4 -18 -15 -43
-23 -55 -17 -26 -67 -148 -67 -164 0 -6 -8 -21 -19 -34 -10 -13 -22 -40 -26
-59 -4 -19 -20 -59 -35 -90 -15 -30 -46 -102 -70 -160 -23 -58 -53 -128 -66
-155 -13 -28 -24 -54 -24 -58 0 -4 -8 -26 -19 -50 -43 -98 -71 -165 -71 -171
0 -5 -21 -52 -80 -181 -10 -22 -30 -71 -45 -110 -27 -75 -35 -93 -84 -196 -17
-37 -31 -72 -31 -79 0 -7 -11 -33 -24 -59 -13 -25 -29 -62 -36 -81 -31 -88
-42 -116 -55 -130 -7 -8 -18 -34 -25 -58 -6 -23 -22 -63 -35 -88 -19 -35 -22
-51 -14 -65 9 -18 25 -19 269 -19 310 1 289 -8 354 150 24 58 51 119 60 135 9
17 16 37 16 45 0 8 8 31 19 50 30 56 121 277 121 293 0 8 18 31 39 50 l39 35
486 2 c434 1 489 -1 518 -16 18 -9 34 -18 36 -19 1 -1 11 -24 21 -51 28 -72
65 -163 89 -214 11 -25 30 -72 42 -105 12 -33 27 -69 34 -80 7 -11 19 -38 26
-60 7 -22 23 -61 36 -87 13 -26 24 -56 24 -67 0 -11 12 -29 27 -40 25 -21 35
-21 292 -19 l266 3 3 28 c2 15 -5 42 -16 60 -11 17 -25 50 -32 72 -7 22 -18
51 -26 65 -26 51 -64 143 -64 157 0 8 -11 31 -25 51 -14 20 -25 43 -25 51 0
13 -14 46 -140 336 -29 66 -66 155 -82 199 -16 43 -35 88 -43 100 -8 11 -15
27 -15 36 0 8 -11 35 -24 60 -13 25 -29 63 -36 85 -7 22 -16 45 -20 50 -4 6
-11 21 -15 35 -4 14 -16 36 -26 49 -11 13 -19 32 -19 43 0 11 -14 49 -31 86
-55 121 -66 146 -89 207 -13 33 -36 87 -51 120 -16 33 -29 66 -29 74 0 7 -8
28 -19 45 -10 17 -22 42 -26 56 -7 26 -15 44 -58 141 -14 32 -28 71 -32 87 -3
17 -13 36 -21 43 -7 6 -21 34 -29 61 -8 28 -19 56 -24 62 -5 6 -25 52 -44 101
-20 50 -45 108 -56 130 -12 21 -21 52 -21 67 0 15 -5 30 -11 33 -5 4 -20 28
-32 53 l-22 47 -208 3 -207 2 -11 -27z m251 -775 c39 -94 80 -212 80 -232 0
-13 7 -29 14 -36 8 -6 22 -33 30 -58 8 -26 27 -78 41 -117 15 -38 33 -92 41
-120 9 -27 23 -66 33 -85 10 -19 22 -46 26 -60 3 -14 16 -44 28 -68 l22 -43
-24 -20 c-22 -18 -41 -19 -322 -19 -286 0 -300 1 -319 20 -25 25 -21 46 26
148 19 40 34 80 34 90 0 9 10 37 21 62 21 44 50 120 109 287 16 45 38 100 49
122 11 21 23 58 27 81 4 23 13 48 21 56 21 21 52 17 63 -8z"/>
<path d="M48762 8638 c-9 -9 -12 -341 -12 -1434 0 -1280 2 -1424 16 -1438 13
-14 49 -16 243 -16 163 0 230 3 239 12 9 9 12 251 12 1027 0 559 4 1022 9
1030 23 36 49 1 187 -248 11 -21 37 -65 57 -98 21 -34 37 -64 37 -68 0 -4 20
-39 43 -79 46 -75 106 -177 153 -262 16 -28 49 -86 74 -129 47 -81 76 -133
128 -227 18 -32 47 -81 65 -110 18 -29 41 -71 51 -93 10 -22 26 -49 36 -60 10
-11 26 -37 37 -57 10 -21 68 -123 128 -228 61 -105 133 -230 160 -279 81 -144
45 -131 355 -131 214 0 270 3 286 14 19 14 19 41 20 1428 1 1189 -1 1417 -13
1436 l-14 22 -252 -2 -252 -3 -5 -1022 c-5 -1060 -6 -1073 -44 -1033 -7 8 -38
62 -68 120 -30 58 -67 125 -83 150 -15 24 -40 66 -54 93 -14 27 -37 68 -51 92
-14 23 -42 74 -63 111 -45 82 -88 159 -141 251 -22 37 -57 102 -79 143 -22 41
-60 109 -85 150 -25 41 -62 107 -82 145 -20 39 -47 88 -61 110 -14 22 -59 100
-100 173 -41 73 -89 158 -106 190 -18 31 -42 75 -54 97 -12 22 -31 54 -43 70
-12 17 -28 46 -36 65 -7 19 -24 50 -37 68 l-24 32 -283 0 c-206 0 -285 -3
-294 -12z"/>
<path d="M51638 8644 c-13 -12 -10 -2852 2 -2875 10 -18 25 -19 385 -19 342 0
431 4 655 30 115 13 320 58 366 80 22 11 48 20 57 20 20 0 205 91 251 123 72
50 140 111 202 179 62 69 77 89 147 192 32 48 137 259 137 276 0 6 9 30 19 53
11 23 24 71 31 107 6 36 18 87 26 115 23 79 20 432 -5 566 -11 57 -22 122 -26
144 -4 22 -18 63 -31 91 -13 28 -24 59 -24 68 0 18 -84 182 -123 240 -63 96
-99 139 -184 223 -76 76 -243 203 -267 203 -4 0 -52 23 -107 50 -55 28 -113
50 -129 50 -15 0 -45 7 -66 16 -22 9 -100 28 -174 42 -129 23 -157 25 -635 29
-275 3 -503 2 -507 -3z m897 -496 c261 -21 468 -121 641 -308 45 -49 144 -190
144 -206 0 -3 13 -36 29 -72 16 -37 34 -96 40 -132 5 -36 15 -100 22 -142 13
-79 12 -101 -22 -342 -16 -116 -105 -289 -207 -401 -49 -53 -135 -118 -197
-147 -28 -13 -66 -34 -85 -46 -19 -12 -43 -22 -53 -22 -10 0 -37 -9 -60 -19
-44 -20 -181 -48 -302 -62 -116 -13 -299 -11 -319 4 -17 12 -18 63 -18 938 0
670 3 931 11 947 17 33 88 35 376 10z"/>
<path d="M54442 8638 c-9 -9 -12 -343 -12 -1440 0 -1365 1 -1428 18 -1437 10
-5 122 -10 249 -11 230 -1 232 -1 247 22 15 21 16 159 16 1435 -1 1251 -3
1414 -16 1428 -13 13 -54 15 -253 15 -171 0 -240 -3 -249 -12z"/>
<path d="M55510 8631 c-7 -15 -10 -427 -8 -1441 3 -1250 5 -1422 18 -1430 8
-5 116 -10 241 -10 184 0 229 3 238 14 9 11 12 147 11 530 0 463 1 517 15 523
9 3 26 0 38 -6 22 -13 30 -22 145 -190 36 -53 78 -114 94 -136 16 -22 54 -78
85 -125 31 -47 61 -89 67 -95 7 -5 33 -41 59 -80 27 -38 69 -100 95 -136 26
-36 82 -116 124 -176 42 -61 84 -113 93 -117 25 -9 578 -7 593 2 10 7 10 15 2
33 -10 24 -24 43 -166 230 -39 52 -110 148 -158 214 -96 131 -95 130 -178 238
-32 41 -58 79 -58 84 0 6 -10 18 -21 29 -12 10 -37 42 -55 69 -18 28 -46 66
-63 85 -17 19 -31 42 -31 51 0 28 55 62 120 74 76 14 263 118 346 192 75 67
175 228 225 361 23 61 32 106 40 212 18 218 -6 389 -70 515 -12 21 -21 44 -21
51 0 6 -7 17 -16 25 -8 7 -31 35 -49 63 -87 129 -269 257 -440 309 -172 52
-154 51 -747 55 -552 3 -557 3 -568 -17z m970 -481 c19 -6 50 -10 69 -10 31 0
86 -20 148 -54 51 -27 143 -130 175 -194 32 -65 33 -71 33 -192 0 -134 3 -122
-69 -257 -33 -61 -164 -136 -316 -179 -54 -16 -100 -19 -267 -19 -179 0 -204
2 -220 17 -16 17 -17 52 -18 441 0 340 3 427 13 440 10 11 34 17 80 19 112 5
335 -3 372 -12z"/>
<path d="M57838 8639 c-17 -9 -18 -88 -18 -1424 0 -894 4 -1423 10 -1439 l10
-26 230 0 c217 0 231 1 250 20 20 20 20 33 20 1431 0 953 -3 1417 -10 1430
-10 18 -23 19 -243 19 -139 0 -239 -5 -249 -11z"/>
<path d="M3450 6783 c-12 -15 -42 -68 -66 -118 -25 -49 -49 -97 -54 -105 -5
-8 -32 -64 -61 -125 -28 -60 -91 -191 -139 -290 -49 -99 -95 -196 -104 -215
-8 -19 -22 -46 -30 -60 -14 -24 -46 -91 -130 -275 -20 -44 -41 -87 -47 -95 -5
-8 -16 -31 -25 -50 -8 -19 -55 -116 -103 -215 -48 -99 -102 -209 -119 -245
-18 -36 -38 -76 -45 -90 -8 -14 -23 -45 -35 -70 -34 -74 -190 -396 -252 -520
-32 -63 -61 -130 -65 -147 -3 -18 -10 -35 -15 -38 -4 -3 -45 -80 -90 -173 -45
-92 -127 -258 -182 -369 -109 -221 -114 -243 -59 -276 16 -9 53 -41 83 -70
118 -117 435 -349 652 -479 60 -36 245 -130 368 -188 35 -16 70 -34 78 -38 8
-5 38 -17 65 -26 28 -10 77 -28 110 -41 116 -45 227 -79 289 -90 21 -3 50 -14
64 -23 14 -9 60 -22 101 -29 42 -6 94 -17 116 -23 22 -6 65 -15 95 -20 30 -4
95 -16 145 -24 49 -9 135 -21 190 -26 55 -5 170 -16 255 -25 273 -30 581 -10
1140 70 52 8 113 20 136 28 23 9 72 18 110 22 38 4 89 16 114 27 25 11 68 22
95 25 28 3 69 14 93 25 24 10 53 18 65 18 12 0 45 11 72 25 28 13 62 25 76 25
29 0 55 23 45 39 -4 6 -50 43 -104 83 -248 185 -456 403 -631 661 -33 48 -68
98 -79 111 -19 25 -120 224 -167 331 -49 110 -125 339 -132 395 -3 30 -14 71
-25 90 -11 22 -20 68 -24 115 -3 44 -14 129 -26 188 -18 99 -20 135 -15 425 3
174 10 337 15 362 6 25 16 92 22 149 6 57 20 125 30 151 31 79 36 141 13 169
l-20 24 -59 -28 c-32 -15 -66 -33 -74 -41 -21 -18 -175 -68 -293 -94 -88 -21
-115 -22 -275 -17 -191 7 -266 21 -377 73 -166 77 -329 259 -447 496 -26 53
-48 103 -48 110 0 7 -9 28 -20 46 -11 17 -23 51 -26 75 -4 23 -15 56 -25 72
-18 31 -40 120 -63 256 -7 41 -16 81 -20 87 -12 20 -44 13 -66 -15z"/>
<path d="M10600 4911 c-36 -3 -79 -14 -97 -24 -18 -9 -43 -17 -56 -17 -13 0
-40 -12 -60 -27 -20 -16 -53 -39 -74 -52 -45 -28 -102 -101 -115 -150 -6 -19
-19 -51 -29 -70 -26 -50 -26 -159 0 -192 10 -14 25 -45 32 -69 9 -32 31 -63
74 -106 56 -57 146 -114 178 -114 7 0 36 -12 63 -26 27 -14 78 -29 113 -35 36
-5 78 -16 94 -24 16 -8 52 -17 81 -21 58 -7 152 -45 213 -86 56 -38 73 -75 73
-163 0 -69 -2 -74 -40 -123 -23 -28 -54 -55 -72 -61 -18 -6 -42 -21 -54 -32
-18 -17 -39 -21 -140 -25 l-119 -6 -75 40 c-50 26 -84 53 -103 78 -30 43 -77
135 -77 152 0 5 -24 35 -52 66 -52 54 -54 55 -98 49 -56 -7 -106 -47 -115 -90
-4 -18 -5 -65 -3 -105 4 -69 7 -77 58 -151 96 -140 196 -207 370 -248 25 -6
122 -11 216 -11 150 0 177 2 217 20 25 11 60 23 78 27 54 12 185 108 234 171
29 36 54 85 71 137 24 72 26 90 21 176 -6 101 -29 165 -84 239 -28 37 -125
112 -146 112 -8 0 -30 11 -50 24 -19 13 -50 27 -68 31 -19 3 -56 15 -84 25
-68 24 -148 45 -267 68 -24 5 -61 18 -83 30 -22 12 -48 22 -57 22 -27 0 -95
67 -108 105 -26 80 9 153 103 213 43 27 48 28 183 27 125 0 143 -2 174 -22 43
-26 102 -99 150 -183 19 -35 46 -68 62 -76 34 -18 89 -18 132 0 27 11 36 23
50 67 41 123 -25 255 -174 351 -30 19 -70 38 -89 42 -19 3 -42 13 -50 20 -19
17 -293 29 -401 17z"/>
<path d="M18280 4913 c-28 -5 -60 -30 -60 -48 0 -6 -9 -30 -20 -53 -19 -40
-20 -61 -20 -716 0 -658 1 -677 21 -730 27 -73 65 -101 136 -101 45 0 57 4 83
31 17 17 35 48 40 70 10 42 14 1399 5 1449 -16 81 -82 116 -185 98z"/>
<path d="M22817 4913 c-33 -2 -72 -12 -90 -23 -18 -11 -48 -20 -68 -20 -25 0
-42 -7 -59 -25 -13 -14 -30 -25 -37 -25 -31 0 -113 -93 -148 -167 -33 -70 -35
-80 -35 -177 0 -84 4 -113 21 -152 44 -99 152 -197 259 -234 25 -9 59 -23 75
-32 17 -9 55 -19 85 -23 30 -4 74 -15 97 -25 24 -10 64 -22 90 -26 57 -8 162
-46 209 -75 75 -46 120 -161 91 -231 -23 -54 -73 -104 -145 -144 -63 -35 -73
-37 -173 -42 -103 -4 -109 -3 -170 26 -76 35 -156 120 -180 191 -41 120 -127
191 -197 162 -34 -14 -109 -100 -118 -135 -4 -18 1 -38 19 -68 13 -24 27 -56
31 -73 8 -32 80 -138 117 -171 59 -53 150 -104 231 -129 80 -24 101 -26 260
-27 140 0 182 3 218 17 25 9 61 20 82 24 35 8 90 39 171 98 43 31 120 141 136
193 5 19 16 53 24 75 22 59 15 178 -13 240 -40 89 -52 109 -84 143 -36 39
-109 92 -127 92 -6 0 -28 10 -48 23 -34 21 -72 33 -216 71 -33 9 -80 23 -105
31 -25 8 -65 17 -90 21 -25 3 -60 15 -78 25 -18 11 -42 19 -53 19 -43 0 -139
116 -139 169 0 35 48 112 89 142 50 36 103 48 203 49 125 0 167 -13 229 -73
30 -29 65 -73 77 -99 12 -26 29 -56 37 -65 8 -10 21 -27 29 -38 12 -17 26 -20
81 -20 64 0 68 1 101 37 32 36 34 41 34 114 0 67 -3 80 -25 106 -14 16 -25 35
-25 42 0 13 -54 66 -116 114 -23 17 -83 45 -133 62 -82 28 -108 32 -229 34
-75 2 -163 2 -195 -1z"/>
<path d="M28466 4911 c-31 -7 -34 -10 -65 -91 -21 -54 -21 -67 -21 -721 0
-641 1 -668 20 -724 26 -75 41 -91 100 -105 60 -14 105 2 144 52 l26 35 0 736
0 735 -26 32 c-47 55 -96 69 -178 51z"/>
<path d="M37513 4913 c-12 -2 -38 -22 -58 -44 l-36 -40 3 -742 c2 -408 7 -750
12 -759 4 -10 32 -29 60 -43 89 -44 159 -20 210 70 25 45 25 46 28 346 3 284
4 301 22 315 27 19 638 21 676 1 l25 -13 2 -279 c3 -337 7 -376 39 -414 28
-34 106 -57 154 -46 37 8 76 55 101 119 16 44 18 101 20 704 1 599 0 661 -16
707 -26 76 -57 112 -105 120 -86 15 -156 -17 -181 -82 -4 -12 -9 -138 -11
-280 -2 -231 -4 -259 -20 -275 -17 -17 -45 -18 -352 -18 -309 0 -334 1 -341
18 -4 9 -9 124 -11 256 -4 231 -5 240 -30 292 -14 30 -36 61 -47 69 -24 15
-109 26 -144 18z"/>
<path d="M42993 4910 c-12 -5 -36 -31 -53 -57 l-30 -48 3 -715 2 -715 28 -47
c21 -37 36 -49 65 -57 67 -18 142 10 161 59 6 16 16 42 21 58 7 18 9 266 8
717 l-3 690 -24 49 c-17 34 -33 52 -57 62 -37 16 -88 17 -121 4z"/>
<path d="M44809 4913 c-51 -8 -159 -127 -159 -175 0 -8 -9 -31 -20 -52 -11
-22 -27 -61 -35 -87 -9 -27 -21 -51 -26 -54 -5 -4 -9 -15 -9 -27 0 -11 -9 -37
-20 -57 -11 -20 -29 -63 -40 -96 -50 -142 -61 -172 -74 -200 -7 -16 -23 -57
-35 -90 -12 -33 -33 -81 -47 -106 -13 -26 -24 -55 -24 -65 0 -11 -12 -41 -25
-69 -14 -27 -25 -55 -25 -61 0 -12 -50 -130 -74 -174 -7 -14 -17 -43 -21 -65
-3 -22 -15 -54 -26 -71 -27 -44 -24 -70 14 -126 59 -88 175 -101 229 -25 32
44 87 171 103 236 8 30 27 70 43 90 l29 36 316 3 315 2 22 -29 c20 -28 31 -57
84 -206 33 -91 91 -170 133 -178 44 -8 117 11 152 41 31 26 32 29 32 107 1 68
-4 90 -31 150 -52 117 -58 129 -65 155 -4 14 -16 41 -26 60 -11 19 -19 44 -19
55 0 11 -11 37 -25 57 -14 20 -25 44 -25 53 0 9 -9 35 -19 58 -38 84 -71 167
-71 178 0 6 -9 23 -19 38 -11 15 -23 45 -27 66 -4 22 -15 56 -25 75 -10 19
-30 63 -44 98 -14 34 -36 88 -50 121 -14 32 -25 63 -25 69 0 23 -74 163 -106
200 -55 65 -120 83 -235 65z m98 -375 c6 -7 15 -33 21 -58 6 -25 20 -63 32
-85 11 -21 20 -51 20 -65 0 -14 7 -38 16 -55 16 -29 41 -95 69 -184 8 -24 24
-59 36 -78 18 -29 20 -42 13 -72 -9 -35 -11 -36 -54 -37 -266 -5 -400 -5 -409
0 -17 11 -13 61 8 98 10 18 22 49 26 68 3 19 14 55 24 80 34 83 60 155 67 185
4 17 16 44 26 60 10 17 21 52 24 78 9 62 55 99 81 65z"/>
<path d="M16142 4883 c-48 -32 -56 -52 -50 -127 4 -45 10 -58 39 -84 29 -27
42 -31 87 -32 60 0 84 10 118 49 19 21 23 37 24 92 l0 67 -48 31 c-63 40 -112
41 -170 4z"/>
<path d="M18934 4878 l-49 -33 -3 -62 c-3 -59 -1 -64 31 -100 32 -34 40 -37
99 -41 59 -4 66 -2 95 25 67 63 64 171 -5 218 -53 36 -107 34 -168 -7z"/>
<path d="M29128 4877 c-47 -32 -47 -32 -48 -91 0 -98 45 -146 139 -146 62 0
103 28 124 84 23 62 16 96 -30 147 -32 36 -40 39 -87 39 -41 0 -60 -6 -98 -33z"/>
<path d="M55368 4875 l-48 -35 0 -63 c0 -56 3 -66 28 -89 38 -36 65 -48 108
-48 71 0 103 19 131 78 24 52 25 55 9 96 -22 57 -67 89 -131 93 -44 3 -55 0
-97 -32z"/>
<path d="M33395 4890 c-278 -4 -408 -9 -427 -18 -16 -6 -37 -26 -48 -44 -19
-32 -20 -51 -20 -746 0 -517 3 -719 11 -735 29 -53 101 -91 157 -81 65 10 71
14 107 68 l35 53 0 285 c0 267 1 286 19 302 17 16 39 17 248 10 290 -9 326 -5
381 44 29 26 42 46 42 64 0 32 -24 90 -43 107 -11 8 -97 11 -316 11 l-301 0
-15 24 c-14 21 -16 54 -13 214 2 143 6 193 17 206 12 15 47 16 350 16 285 -1
341 1 367 14 58 29 71 55 66 128 -3 39 -71 74 -154 79 -34 2 -243 2 -463 -1z"/>
<path d="M20968 4853 c-45 -52 -53 -84 -58 -243 l-5 -154 -30 -8 c-16 -4 -41
-9 -55 -12 -14 -3 -40 -19 -58 -35 -33 -31 -34 -38 -16 -101 7 -24 82 -70 114
-70 19 0 33 -7 40 -19 6 -12 10 -135 10 -328 0 -169 5 -335 10 -368 15 -90 47
-161 84 -184 17 -11 41 -27 52 -36 55 -40 340 -39 402 1 71 47 92 115 51 168
-20 25 -23 26 -138 26 -137 0 -138 0 -170 97 -19 57 -21 85 -21 338 0 262 1
276 20 295 15 15 33 20 75 20 66 0 128 23 149 55 20 30 20 48 1 85 -22 42 -63
60 -140 60 -108 0 -105 -6 -105 185 0 179 -6 207 -51 231 -41 21 -142 19 -161
-3z"/>
<path d="M40716 4830 c-40 -44 -38 -35 -38 -253 0 -117 0 -118 -24 -128 -14
-5 -38 -9 -54 -9 -18 0 -42 -12 -65 -31 -28 -25 -35 -38 -35 -66 0 -48 56
-103 105 -103 25 0 39 -7 55 -27 21 -27 21 -34 19 -368 -1 -187 2 -358 6 -380
11 -58 62 -131 111 -160 59 -34 157 -47 279 -37 126 11 189 38 210 90 20 47
19 69 -7 104 l-21 31 -104 -6 c-120 -7 -143 0 -176 52 -21 35 -22 43 -22 353
0 244 3 320 13 330 7 7 46 15 88 19 116 9 144 38 129 135 -5 36 -11 44 -37 53
-17 6 -62 11 -99 11 -94 0 -96 3 -98 200 -2 158 -5 173 -46 214 -12 12 -35 16
-85 16 -66 0 -68 -1 -104 -40z"/>
<path d="M30190 4479 c-67 -7 -136 -27 -205 -62 -105 -54 -237 -210 -251 -297
-4 -25 -15 -63 -25 -85 -25 -54 -27 -289 -4 -322 8 -12 20 -45 26 -75 6 -29
19 -65 30 -80 10 -15 19 -32 19 -37 0 -21 100 -129 147 -159 27 -18 90 -46
138 -63 84 -29 98 -30 240 -31 140 0 155 2 225 28 72 27 142 68 184 106 11 10
23 18 27 18 4 0 10 8 13 18 3 9 17 30 31 46 18 22 25 41 25 73 0 53 -30 88
-84 98 -33 7 -42 2 -111 -50 -41 -32 -80 -64 -86 -71 -7 -8 -46 -31 -88 -50
-71 -34 -79 -36 -158 -32 -55 3 -88 10 -100 20 -10 8 -37 23 -60 34 -24 10
-43 21 -43 25 0 4 -16 30 -36 59 -24 35 -39 71 -46 112 -18 100 -31 97 360 96
l327 -1 60 31 c56 28 62 34 83 89 27 71 27 64 1 119 -11 25 -22 60 -24 79 -13
96 -124 238 -229 294 -33 17 -64 31 -70 31 -6 0 -24 7 -39 15 -26 13 -163 36
-197 32 -8 -1 -44 -5 -80 -8z m191 -207 c43 -19 115 -87 139 -131 6 -12 14
-53 17 -90 5 -65 4 -70 -18 -82 -30 -16 -486 -14 -506 3 -28 23 -15 99 30 177
38 68 48 78 112 113 64 36 75 39 126 34 31 -3 76 -14 100 -24z"/>
<path d="M41965 4479 c-190 -13 -341 -102 -445 -262 -21 -32 -41 -74 -45 -95
-3 -20 -13 -56 -21 -80 -9 -28 -14 -86 -14 -167 0 -142 25 -251 79 -347 58
-103 161 -185 289 -231 75 -27 81 -27 252 -24 165 4 179 6 240 32 103 44 173
98 225 174 39 58 42 123 6 152 -56 46 -109 31 -216 -61 -88 -75 -173 -113
-263 -118 -67 -4 -79 -1 -138 28 -72 37 -140 104 -149 147 -3 15 -16 52 -27
82 l-21 54 22 19 c22 17 48 18 360 18 317 0 339 1 376 20 22 11 44 20 51 20
24 0 39 64 38 165 -1 98 -2 102 -45 185 -66 128 -159 212 -289 258 -84 30
-153 38 -265 31z m128 -200 c73 -24 127 -72 163 -142 30 -58 41 -135 25 -166
-12 -21 -14 -21 -279 -19 -309 3 -289 -5 -253 112 27 87 42 114 88 157 82 78
150 93 256 58z"/>
<path d="M11845 4470 c-11 -4 -37 -23 -58 -41 l-37 -34 1 -725 c1 -399 2 -743
3 -765 1 -34 8 -44 46 -73 38 -29 50 -33 83 -29 44 6 68 25 106 82 26 40 26
41 31 285 5 243 5 245 27 248 16 2 35 -10 65 -42 26 -27 71 -58 111 -77 64
-30 74 -31 185 -31 112 1 120 2 195 37 63 28 93 50 150 109 107 110 145 222
154 444 4 95 1 133 -11 169 -9 26 -16 59 -16 73 0 15 -11 43 -23 62 -13 19
-27 46 -31 61 -10 40 -144 168 -202 193 -138 59 -195 65 -324 35 -90 -22 -136
-46 -196 -103 -49 -47 -77 -48 -82 -3 -4 36 -63 101 -109 121 -36 16 -40 16
-68 4z m573 -223 c9 -8 29 -18 43 -22 50 -13 139 -134 139 -192 1 -15 7 -54
15 -86 10 -45 11 -73 4 -115 -6 -32 -13 -77 -16 -102 -9 -65 -56 -141 -121
-195 l-56 -47 -101 4 c-91 3 -106 6 -143 31 -44 29 -111 111 -112 137 0 8 -9
32 -20 53 -17 31 -20 56 -20 154 0 121 10 161 62 258 17 31 84 92 128 115 60
32 165 36 198 7z"/>
<path d="M13633 4469 c-94 -12 -220 -77 -284 -147 -63 -68 -129 -169 -129
-197 0 -11 -9 -52 -20 -90 -28 -98 -28 -250 1 -342 27 -87 71 -193 80 -193 4
0 17 -16 30 -36 28 -45 158 -142 201 -151 18 -3 48 -15 66 -25 29 -18 51 -20
185 -20 160 0 197 6 311 50 120 47 216 152 216 237 0 60 -12 81 -55 95 -46 15
-75 2 -175 -79 -106 -86 -168 -115 -260 -119 -67 -3 -83 0 -142 27 -57 26 -73
40 -111 93 -61 86 -82 193 -43 221 6 4 160 6 341 5 323 -2 331 -1 377 21 58
28 71 43 92 109 15 49 16 58 2 100 -8 26 -20 73 -25 105 -7 37 -20 70 -36 89
-14 16 -25 33 -25 37 0 5 -26 34 -57 66 -44 43 -83 69 -161 106 l-103 49 -107
-1 c-59 -1 -135 -5 -169 -10z m193 -184 c16 -8 38 -15 49 -15 23 0 93 -69 122
-121 12 -21 27 -62 34 -93 12 -53 11 -58 -8 -77 -18 -19 -33 -20 -254 -20
-129 0 -241 0 -251 1 -22 0 -37 49 -29 96 10 49 47 123 75 148 11 11 31 28 43
39 27 24 116 55 159 56 18 1 45 -6 60 -14z"/>
<path d="M15025 4464 c-22 -8 -54 -20 -72 -25 -149 -45 -298 -220 -322 -378
-7 -41 -16 -80 -20 -85 -5 -6 -14 -34 -20 -63 -12 -57 -4 -121 23 -185 9 -21
16 -49 16 -63 0 -41 48 -144 96 -206 107 -139 272 -203 499 -193 132 6 231 30
291 70 19 13 38 24 41 24 11 0 98 85 118 115 11 16 31 54 44 82 24 52 24 53 6
93 -32 70 -57 90 -115 90 -59 0 -73 -11 -150 -120 -66 -93 -94 -115 -176 -140
l-74 -22 -82 21 c-69 18 -89 28 -125 63 -23 22 -47 55 -54 72 -7 17 -22 44
-33 61 -18 26 -20 45 -21 185 l0 155 39 79 c37 72 46 83 110 125 70 45 72 46
151 45 67 0 88 -5 121 -25 58 -34 102 -75 158 -146 54 -69 85 -82 152 -66 107
25 103 192 -7 293 -81 75 -99 88 -140 103 -24 8 -66 23 -94 33 -70 25 -303 30
-360 8z"/>
<path d="M16170 4456 c-32 -14 -60 -34 -67 -47 -10 -18 -13 -150 -13 -539 0
-580 -3 -557 76 -595 33 -16 44 -16 84 -6 25 7 60 26 78 44 l32 31 0 514 c0
317 -4 520 -10 532 -12 23 -78 75 -105 83 -11 3 -45 -4 -75 -17z"/>
<path d="M17080 4466 c-14 -8 -46 -20 -72 -26 -26 -7 -52 -18 -59 -26 -6 -8
-17 -14 -24 -14 -23 0 -123 -99 -144 -143 -13 -27 -21 -63 -21 -94 0 -45 4
-55 37 -87 31 -29 45 -36 78 -36 52 0 92 38 134 125 18 38 86 94 141 114 70
27 186 29 237 4 78 -37 123 -113 123 -207 0 -42 -24 -70 -55 -62 -12 3 -46 -4
-76 -15 -30 -12 -94 -30 -144 -40 -123 -27 -134 -29 -185 -35 -65 -8 -178 -53
-226 -88 -23 -17 -58 -54 -77 -82 -31 -44 -36 -58 -37 -115 -3 -132 -1 -155
20 -179 11 -13 20 -26 20 -31 0 -24 78 -95 133 -121 88 -42 140 -49 270 -39
120 10 170 28 297 106 30 19 63 34 72 35 9 0 37 -27 62 -59 84 -109 187 -120
242 -25 18 30 24 51 19 67 -48 157 -53 196 -54 472 -2 290 -9 375 -33 402 -8
10 -18 29 -22 43 -12 40 -88 99 -173 132 -76 30 -84 31 -268 35 -153 3 -195 0
-215 -11z m416 -633 c14 -14 16 -31 12 -97 -6 -92 -24 -143 -70 -195 -96 -109
-312 -135 -396 -47 -92 94 -60 216 70 269 35 14 87 28 117 32 30 3 67 13 83
21 63 33 159 41 184 17z"/>
<path d="M24023 4450 c-33 -24 -43 -39 -48 -68 -3 -20 -10 -58 -16 -85 -7 -31
-9 -144 -5 -330 6 -294 19 -476 38 -511 25 -47 89 -113 143 -145 48 -29 69
-35 143 -41 162 -14 301 27 374 109 20 22 43 41 50 41 27 0 57 -31 64 -65 9
-48 33 -72 87 -87 42 -11 51 -10 89 9 70 34 70 30 73 588 3 470 2 491 -17 526
-18 33 -94 89 -121 89 -24 0 -96 -45 -119 -75 -23 -29 -23 -34 -25 -295 -3
-446 -10 -481 -113 -568 -42 -36 -61 -45 -111 -52 -77 -11 -153 1 -183 29 -13
12 -36 45 -52 74 l-29 52 -5 355 c-6 411 -7 417 -86 451 -74 31 -85 31 -131
-1z"/>
<path d="M26045 4471 c-16 -5 -59 -14 -95 -20 -66 -13 -108 -35 -191 -103 -26
-21 -54 -38 -63 -38 -18 0 -19 3 -36 67 -14 55 -66 93 -126 93 -50 0 -86 -25
-117 -83 l-22 -42 -3 -698 c-2 -663 -2 -700 16 -740 10 -23 31 -57 46 -74 23
-28 35 -33 69 -33 48 0 98 27 124 67 16 24 18 57 21 284 4 283 4 284 63 253
17 -8 47 -30 67 -48 87 -76 102 -81 262 -81 l145 0 69 35 c85 43 181 136 218
211 57 118 62 143 66 330 l4 177 -32 93 c-62 181 -162 274 -360 338 -69 23
-78 23 -125 12z m65 -235 c63 -35 105 -83 125 -141 9 -27 25 -64 36 -81 16
-26 19 -50 19 -140 -1 -98 -3 -113 -25 -149 -14 -22 -25 -50 -25 -63 0 -33
-72 -124 -119 -150 -33 -19 -54 -22 -139 -22 l-100 0 -55 46 c-64 52 -95 101
-126 196 -27 85 -27 162 0 267 30 119 71 178 158 232 73 44 178 47 251 5z"/>
<path d="M27005 4471 c-48 -12 -74 -29 -90 -62 -14 -26 -16 -119 -15 -781 0
-412 3 -754 6 -760 14 -22 89 -68 112 -68 37 0 112 50 118 80 3 14 11 36 17
50 8 17 12 102 12 255 0 227 0 230 21 233 12 2 28 -3 35 -10 34 -32 108 -88
141 -106 54 -31 123 -40 240 -31 89 6 113 12 164 39 93 48 172 130 217 223 20
43 37 88 37 100 0 12 9 39 20 59 16 30 19 58 21 175 1 121 -1 143 -20 183 -11
25 -21 58 -21 75 0 40 -94 178 -158 232 -50 43 -83 59 -187 95 -93 32 -261 14
-324 -34 -13 -10 -29 -18 -35 -18 -7 0 -32 -20 -56 -45 -24 -25 -52 -45 -61
-45 -23 0 -46 29 -58 77 -9 33 -20 46 -55 67 -25 14 -46 26 -48 25 -2 -1 -16
-4 -33 -8z m578 -227 c63 -33 87 -56 129 -127 l43 -72 0 -182 c0 -173 -1 -183
-23 -210 -12 -15 -26 -37 -31 -48 -5 -12 -34 -42 -65 -67 -48 -39 -65 -47
-113 -52 -66 -8 -153 6 -186 29 -39 27 -117 126 -117 148 0 12 -10 38 -22 57
-17 27 -23 55 -26 128 -4 82 -1 103 23 175 35 104 88 169 176 215 58 30 70 33
122 28 32 -3 72 -13 90 -22z"/>
<path d="M31683 4469 c-65 -12 -111 -38 -146 -82 -56 -69 -101 -72 -112 -6
-12 71 -89 105 -169 75 -40 -15 -45 -22 -71 -87 l-28 -71 1 -447 1 -446 31
-61 30 -61 62 -13 c73 -16 97 -7 140 55 27 40 27 40 28 225 2 272 14 462 33
491 8 13 20 43 27 67 6 24 20 51 31 60 12 9 30 25 41 35 25 20 23 20 118 18
54 -1 82 -7 100 -20 54 -38 93 -32 153 24 23 22 27 34 27 80 0 51 -2 55 -43
89 -23 19 -56 38 -72 42 -17 4 -41 12 -55 19 -37 18 -80 23 -127 14z"/>
<path d="M35760 4457 c-80 -41 -78 -23 -79 -575 0 -284 3 -501 9 -522 22 -81
117 -122 190 -82 71 39 70 35 71 347 1 223 4 288 16 320 8 22 21 65 28 95 17
76 37 112 84 149 36 29 44 31 121 31 63 0 90 -4 114 -19 57 -34 69 -34 119 5
47 37 47 37 47 99 0 59 -1 63 -37 91 -57 45 -162 77 -238 72 -49 -3 -72 -11
-113 -37 -29 -18 -60 -46 -69 -62 -29 -48 -67 -48 -78 -1 -7 34 -22 52 -60 78
-48 34 -77 36 -125 11z"/>
<path d="M46285 4455 c-113 -38 -178 -80 -250 -158 -35 -40 -65 -81 -65 -91 0
-11 -11 -36 -24 -55 -17 -25 -31 -73 -46 -157 -24 -129 -22 -168 13 -334 44
-205 229 -363 457 -390 97 -12 282 0 321 21 12 6 46 19 76 30 61 21 162 102
198 158 28 45 49 109 47 141 -3 42 -33 97 -58 109 -14 6 -43 11 -64 11 -45 0
-99 -41 -128 -96 -19 -37 -103 -128 -131 -144 -11 -5 -48 -17 -83 -25 -57 -14
-70 -13 -136 2 -57 13 -82 25 -117 56 -46 41 -105 147 -105 191 0 13 -5 47
-12 75 -14 63 12 236 47 308 47 98 174 171 279 160 29 -3 76 -17 104 -32 48
-25 143 -120 170 -171 12 -23 64 -44 112 -44 35 0 89 35 101 67 13 34 1 107
-24 152 -29 51 -115 138 -151 152 -17 7 -38 18 -47 25 -8 8 -50 25 -92 39 -67
21 -95 25 -200 24 -101 0 -134 -4 -192 -24z"/>
<path d="M47737 4470 c-16 -5 -34 -13 -40 -18 -7 -5 -23 -12 -37 -15 -90 -22
-217 -131 -273 -235 -55 -102 -80 -205 -81 -337 -1 -104 3 -132 26 -206 74
-239 238 -372 479 -389 173 -12 272 2 382 54 72 34 155 103 191 158 21 31 44
108 40 133 -14 99 -35 125 -100 125 -72 0 -90 -13 -151 -108 -62 -98 -94 -125
-174 -147 -92 -26 -122 -28 -163 -11 -21 9 -46 16 -56 16 -28 0 -108 82 -143
147 l-32 58 0 170 1 170 34 60 c18 33 47 73 64 88 84 76 206 106 287 70 60
-27 141 -89 158 -122 24 -47 83 -101 118 -107 19 -4 54 -1 78 6 39 11 46 17
55 49 26 92 6 154 -73 235 -35 35 -78 71 -97 80 -19 9 -46 23 -60 31 -65 37
-157 55 -282 54 -68 0 -136 -5 -151 -9z"/>
<path d="M49165 4470 c-154 -38 -275 -120 -337 -230 -17 -30 -38 -63 -46 -72
-23 -27 -55 -259 -48 -348 11 -131 23 -184 60 -259 43 -84 148 -196 211 -224
22 -10 56 -27 75 -37 50 -26 184 -38 327 -30 124 7 127 7 249 69 91 46 184
159 184 224 0 35 -19 76 -39 81 -74 22 -89 19 -130 -23 -22 -23 -44 -41 -49
-41 -5 0 -25 -13 -43 -30 -19 -16 -61 -44 -94 -62 -55 -30 -68 -32 -150 -33
-77 0 -97 4 -139 25 -67 34 -133 114 -157 191 -41 132 -59 126 345 126 l336 0
58 30 c35 18 62 41 71 58 21 44 17 164 -9 232 -69 180 -130 246 -296 323 -65
30 -77 32 -204 36 -74 2 -153 -1 -175 -6z m237 -194 c68 -30 144 -111 154
-164 4 -20 13 -54 20 -74 11 -33 11 -40 -4 -58 -21 -24 -8 -24 -289 -22 -294
2 -291 0 -228 152 67 160 208 227 347 166z"/>
<path d="M53265 4471 c-16 -5 -57 -14 -90 -21 -141 -31 -260 -108 -335 -218
-46 -66 -55 -88 -85 -205 -23 -90 -27 -120 -21 -180 9 -105 33 -203 68 -279
48 -103 170 -221 262 -252 27 -9 58 -22 70 -28 30 -17 248 -27 326 -16 91 13
215 75 288 143 65 60 134 178 147 250 3 22 14 62 22 88 12 38 14 69 9 135 -21
255 -126 432 -308 516 -109 50 -289 84 -353 67z m190 -235 c95 -48 141 -116
175 -259 19 -76 20 -97 11 -155 -25 -155 -60 -234 -131 -295 -40 -34 -94 -53
-185 -64 -84 -10 -192 61 -253 167 l-37 65 0 165 0 165 33 67 c78 157 241 218
387 144z"/>
<path d="M56335 4455 c-90 -30 -131 -52 -190 -100 -43 -35 -115 -132 -115
-154 0 -5 -11 -22 -24 -38 -32 -39 -66 -291 -48 -359 7 -24 12 -68 12 -98 0
-43 8 -70 40 -135 39 -77 130 -191 153 -191 6 0 22 -11 36 -24 45 -43 154 -76
276 -86 159 -12 268 2 364 47 132 63 249 202 225 269 -12 34 -47 64 -81 70
-35 7 -76 -14 -133 -68 -56 -52 -108 -87 -170 -113 -58 -24 -74 -27 -146 -22
-71 4 -88 9 -135 39 -30 20 -64 46 -75 59 -27 30 -84 160 -84 191 1 54 -8 53
367 56 l348 3 50 27 c71 39 88 74 79 176 -8 100 -53 213 -118 298 -35 45 -147
122 -216 147 -56 22 -84 25 -205 27 -124 2 -148 0 -210 -21z m279 -175 c47
-16 70 -32 107 -73 27 -28 48 -60 49 -69 0 -10 9 -41 20 -70 25 -66 25 -85 1
-98 -12 -6 -116 -10 -269 -10 -265 0 -271 1 -275 48 0 11 12 52 28 92 38 95
93 154 165 180 70 24 100 24 174 0z"/>
<path d="M18942 4440 c-23 -16 -46 -38 -51 -49 -7 -13 -11 -193 -11 -532 l0
-511 38 -39 c63 -62 134 -65 196 -6 30 28 35 41 41 97 3 36 5 270 3 520 -2
349 -6 460 -16 478 -19 33 -87 72 -125 72 -22 0 -49 -11 -75 -30z"/>
<path d="M19815 4447 c-44 -13 -101 -32 -126 -44 -52 -25 -137 -115 -145 -153
-2 -14 -9 -45 -14 -70 -16 -68 8 -182 46 -221 43 -45 140 -107 187 -120 23 -6
48 -16 55 -21 7 -6 29 -14 50 -18 96 -19 235 -62 282 -86 56 -29 100 -84 100
-124 0 -39 -35 -87 -87 -120 -47 -30 -51 -30 -153 -28 -97 3 -109 5 -155 34
-27 17 -63 48 -78 70 -97 136 -88 129 -154 132 -56 3 -64 1 -87 -25 -49 -52
-54 -127 -12 -162 9 -7 16 -21 16 -30 0 -37 115 -123 218 -163 77 -29 77 -29
262 -26 182 3 186 4 266 36 103 41 159 90 203 176 33 65 34 68 29 167 -5 93
-7 103 -31 122 -14 12 -33 35 -42 50 -10 15 -32 35 -49 44 -17 8 -39 22 -48
31 -23 20 -107 50 -188 67 -36 7 -81 20 -100 28 -19 8 -55 18 -80 22 -211 33
-270 199 -94 264 68 26 92 26 171 2 68 -21 110 -50 161 -115 63 -79 136 -97
204 -50 54 38 60 81 22 152 -31 59 -107 128 -152 138 -15 4 -31 10 -37 14 -5
5 -50 18 -98 29 -117 28 -236 27 -342 -2z"/>
<path d="M29139 4436 c-25 -19 -49 -42 -53 -53 -4 -10 -7 -247 -6 -528 l1
-510 31 -32 c46 -48 81 -59 137 -44 58 15 87 42 96 89 5 20 10 237 12 482 5
539 1 570 -77 610 -55 28 -88 25 -141 -14z"/>
<path d="M34610 4451 c-103 -25 -159 -51 -233 -112 -71 -59 -92 -82 -113 -124
-8 -16 -19 -37 -24 -45 -28 -44 -59 -153 -65 -225 -22 -298 90 -516 321 -629
90 -43 199 -58 344 -47 88 7 119 15 190 46 46 20 87 39 90 43 3 4 26 25 52 46
47 37 82 87 142 196 l29 55 1 200 1 201 -34 74 c-47 100 -71 136 -139 197
-130 119 -362 171 -562 124z m277 -212 c69 -33 101 -66 141 -143 l36 -71 1
-155 c0 -146 -1 -158 -26 -210 -14 -30 -47 -78 -73 -107 -40 -44 -57 -55 -117
-73 -73 -22 -95 -20 -219 16 -58 16 -127 122 -144 218 -7 39 -18 81 -24 93
-16 30 -15 86 3 129 8 19 17 59 21 87 3 29 17 69 30 89 13 21 24 41 24 45 0
14 68 63 123 89 44 21 62 24 116 20 35 -3 84 -15 108 -27z"/>
<path d="M39605 4463 c-120 -19 -210 -54 -287 -111 -46 -34 -113 -115 -133
-162 -9 -19 -22 -46 -30 -60 -7 -14 -20 -59 -29 -100 -9 -41 -20 -91 -26 -110
-10 -35 -8 -48 24 -205 27 -132 68 -210 156 -295 121 -116 271 -165 472 -153
57 3 117 11 133 19 17 7 53 21 80 30 57 19 125 65 175 121 47 52 106 150 115
193 4 19 14 48 22 64 18 35 15 334 -3 357 -7 8 -15 30 -19 49 -12 60 -66 142
-143 218 -41 39 -79 72 -86 72 -6 0 -27 8 -46 19 -87 46 -264 72 -375 54z
m221 -229 c69 -39 126 -111 160 -202 26 -68 29 -88 27 -177 -3 -103 -11 -132
-61 -233 -29 -59 -101 -132 -129 -132 -10 0 -37 -7 -61 -17 -41 -15 -48 -15
-120 2 -81 19 -122 34 -122 45 0 3 -13 19 -29 36 -16 16 -43 61 -61 99 -31 68
-32 74 -34 210 l-1 140 37 75 c42 87 72 119 154 161 53 26 66 29 125 25 48 -3
80 -12 115 -32z"/>
<path d="M50480 4455 c-19 -7 -44 -14 -56 -14 -11 -1 -34 -7 -50 -15 -16 -8
-41 -19 -56 -25 -16 -6 -28 -15 -28 -20 0 -6 -14 -17 -30 -26 -28 -14 -44 -38
-84 -121 -19 -40 -22 -124 -6 -189 10 -39 24 -61 65 -100 61 -58 134 -105 161
-105 11 0 35 -8 54 -19 20 -10 67 -26 105 -34 160 -36 262 -75 299 -116 23
-26 32 -102 16 -140 -8 -20 -31 -39 -72 -61 -58 -31 -63 -32 -159 -28 -95 4
-100 5 -156 43 -40 28 -74 64 -111 118 l-53 77 -58 0 c-64 0 -91 -19 -111 -77
-24 -67 32 -182 113 -236 129 -85 234 -109 435 -100 105 5 141 11 207 34 157
57 237 151 251 294 9 104 -12 167 -79 231 -55 54 -117 94 -144 94 -9 0 -24 7
-34 16 -10 9 -47 19 -83 24 -36 4 -85 17 -109 29 -24 12 -61 21 -83 22 -25 0
-64 14 -109 37 -62 33 -72 43 -85 80 -14 40 -13 46 5 80 13 24 38 47 70 65 45
25 57 27 117 23 96 -7 143 -31 213 -111 65 -73 103 -95 162 -95 29 0 46 8 72
32 32 30 33 34 29 90 -4 56 -7 61 -64 119 -32 33 -70 62 -84 66 -14 3 -37 12
-52 19 -85 43 -346 67 -418 39z"/>
<path d="M51785 4460 c-288 -58 -422 -307 -272 -504 52 -68 137 -108 372 -177
55 -16 108 -29 118 -29 10 0 47 -16 81 -35 92 -51 115 -108 75 -186 -16 -32
-32 -46 -75 -66 -50 -23 -65 -25 -153 -21 -77 3 -103 8 -126 24 -17 11 -38 24
-48 27 -9 4 -38 37 -65 74 -74 105 -84 113 -140 113 -40 0 -53 -5 -75 -28 -68
-71 -37 -185 77 -279 35 -29 70 -53 77 -53 8 0 34 -10 59 -21 61 -28 180 -38
330 -29 153 10 247 42 325 113 61 55 90 110 106 203 15 91 -3 158 -61 228 -32
39 -60 58 -133 92 -51 24 -118 49 -150 54 -31 6 -76 19 -99 29 -24 10 -65 22
-93 25 -27 4 -79 21 -113 39 -94 47 -114 99 -67 169 20 29 37 40 89 57 75 24
87 25 154 11 52 -12 157 -89 181 -133 7 -13 32 -34 55 -46 35 -20 51 -23 90
-17 79 12 105 79 69 179 -10 27 -27 53 -38 59 -11 6 -32 22 -47 36 -32 29 -69
44 -192 78 -92 25 -225 31 -311 14z"/>
<path d="M54323 4450 c-17 -11 -39 -37 -49 -58 -17 -34 -19 -75 -20 -517 -1
-480 -1 -480 22 -533 26 -60 48 -72 128 -72 57 0 70 7 110 61 l26 36 0 244 c0
271 10 395 35 454 10 22 23 54 30 70 7 17 31 43 54 59 37 26 48 28 122 28 64
-1 88 -6 116 -23 51 -32 88 -27 128 15 23 25 36 50 40 80 7 43 -6 86 -25 86
-4 0 -22 11 -38 24 -39 34 -103 55 -187 62 -59 6 -77 3 -110 -14 -44 -22 -82
-55 -105 -90 -9 -14 -26 -24 -45 -25 -27 -2 -31 2 -43 40 -25 79 -123 116
-189 73z"/>
<path d="M55404 4460 c-11 -4 -34 -24 -52 -44 -38 -43 -34 23 -32 -611 l1
-460 40 -40 c36 -37 44 -40 88 -39 70 3 102 21 128 75 22 46 22 53 23 527 2
468 1 481 -19 521 -33 63 -114 97 -177 71z"/>
<path d="M57680 4451 c-81 -22 -165 -62 -206 -98 -17 -16 -45 -59 -64 -98 -30
-64 -32 -74 -27 -146 6 -89 21 -123 75 -170 82 -70 129 -99 161 -99 17 0 43
-7 56 -16 13 -8 83 -31 156 -50 153 -41 250 -87 260 -124 12 -42 10 -115 -3
-131 -29 -34 -96 -69 -150 -77 -129 -20 -256 28 -313 119 -14 21 -29 39 -33
39 -5 0 -18 18 -31 40 -22 40 -23 40 -81 40 -51 0 -61 -3 -79 -26 -40 -51 -45
-89 -21 -152 26 -69 39 -86 110 -138 98 -72 248 -105 440 -97 108 5 161 15
231 45 63 27 145 96 177 149 25 42 46 166 38 226 -10 77 -66 150 -152 200 -51
30 -204 83 -239 83 -11 0 -37 9 -58 20 -21 12 -61 22 -89 24 -30 3 -61 12 -78
25 -15 11 -40 23 -54 27 -15 3 -33 16 -41 27 -20 28 -19 107 1 135 23 33 83
60 152 68 51 5 69 3 107 -15 24 -11 49 -21 54 -21 5 0 37 -30 72 -67 76 -83
105 -103 146 -103 77 0 123 39 123 106 0 51 -9 72 -56 130 -37 46 -162 114
-210 114 -16 0 -42 7 -58 15 -41 22 -231 19 -316 -4z"/>
</g>
</svg>
